<?xml version="1.0" encoding="utf-8"?>
<!-- Generator: Adobe Illustrator 25.4.1, SVG Export Plug-In . SVG Version: 6.00 Build 0)  -->
<svg version="1.1" id="Layer_1" xmlns="http://www.w3.org/2000/svg" xmlns:xlink="http://www.w3.org/1999/xlink" x="0px" y="0px"
	 viewBox="0 0 1448.08 387.58" style="enable-background:new 0 0 1448.08 387.58;" xml:space="preserve">
<style type="text/css">
	.st0{fill:#232D5A;}
	.st1{fill:#F7F7F7;}
	.st2{fill:#FFFFFF;}
	.st3{opacity:0.42;}
	.st4{fill:#F8F7F7;}
</style>
<g>
	<path class="st4" d="M56.37,3.54h33.49l55.53,148.51h-33.9l-11.23-33.07H44.72l-11.65,33.07H0L56.37,3.54z M53.25,94.64h38.48
		L73,40.14h-0.42L53.25,94.64z"/>
	<path class="st4" d="M187.82,3.54h104.41v27.46h-71.76v34.32h62.19v25.38h-62.19v61.36h-32.66V3.54z"/>
	<path class="st4" d="M340.7,3.54h80.08c26.62,0,43.47,18.51,43.47,40.97c0,17.47-7.07,30.58-23.5,37.23v0.42
		c16.02,4.16,20.59,19.76,21.63,34.73c0.62,9.36,0.42,26.83,6.24,35.15h-32.65c-3.95-9.36-3.54-23.71-5.2-35.57
		c-2.29-15.6-8.32-22.46-24.75-22.46h-32.66v58.03H340.7V3.54z M373.35,70.72h35.77c14.56,0,22.46-6.24,22.46-21.21
		c0-14.35-7.9-20.59-22.46-20.59h-35.77V70.72z"/>
	<path class="st4" d="M520.41,3.54h32.66v148.51h-32.66V3.54z"/>
	<path class="st4" d="M901.67,53.45c-2.08-14.77-16.22-26-32.45-26c-29.33,0-40.35,24.96-40.35,50.96
		c0,24.75,11.02,49.71,40.35,49.71c19.97,0,31.2-13.73,33.69-33.28h31.61c-3.33,37.02-28.91,60.73-65.31,60.73
		c-45.97,0-73.01-34.32-73.01-77.17C796.22,34.32,823.26,0,869.22,0c32.65,0,60.11,19.13,64.06,53.45H901.67z"/>
	<path class="st4" d="M986.33,3.54h111.07v27.46h-78.41v31.82h71.96v25.38h-71.96v36.4h80.08v27.46H986.33V3.54z"/>
	<path class="st4" d="M1191.21,3.54h33.49l55.53,148.51h-33.9l-11.23-33.07h-55.53l-11.65,33.07h-33.07L1191.21,3.54z
		 M1188.08,94.64h38.48l-18.72-54.49h-0.42L1188.08,94.64z"/>
	<path class="st4" d="M1322.66,3.54h32.45l61.98,99.63h0.42V3.54h30.58v148.51h-32.66l-61.77-99.42h-0.42v99.42h-30.57V3.54z"/>
	<path class="st4" d="M465.09,235.54H569.5v27.46h-71.76v34.32h62.19v25.38h-62.19v61.36h-32.65V235.54z"/>
	<path class="st4" d="M617.96,235.54h32.65v148.51h-32.65V235.54z"/>
	<path class="st4" d="M731.11,334.75c0,19.76,15.39,27.46,32.86,27.46c11.44,0,28.91-3.33,28.91-18.51
		c0-16.02-22.25-18.72-44.09-24.54c-22.05-5.82-44.3-14.35-44.3-42.22c0-30.37,28.7-44.93,55.53-44.93
		c30.99,0,59.49,13.52,59.49,47.84H787.9c-1.04-17.89-13.73-22.46-29.33-22.46c-10.4,0-22.46,4.37-22.46,16.85
		c0,11.44,7.07,12.9,44.3,22.46c10.81,2.7,44.09,9.57,44.09,43.26c0,27.25-21.42,47.63-61.77,47.63
		c-32.86,0-63.65-16.22-63.23-52.83H731.11z"/>
	<path class="st4" d="M873.38,235.54h32.66v56.99h60.11v-56.99h32.65v148.51h-32.65v-64.06h-60.11v64.06h-32.66V235.54z"/>
	<g>
		<g>
			<path class="st4" d="M598.22,76.11c0.8-8.51,3.14-16.56,6.84-24.26c0.43-0.9,0.31-2.12,0.29-3.19
				c-0.13-8.34,1.41-16.32,5.02-23.86c1.25-2.62,2.93-4.92,6.14-5.13c1.49-0.1,3.05,0.14,4.52,0.46c1.39,0.3,2.74,0.85,4.06,1.4
				c1.01,0.42,1.74,0.25,2.52-0.52c4.43-4.43,9.27-8.35,14.7-11.52c9.69-5.67,20.14-8.7,31.36-9.12c1.43-0.05,2.87-0.07,4.3-0.06
				c1.37,0,2.52,0.85,2.82,2.04c0.31,1.22-0.23,2.5-1.48,3.13c-10.44,5.29-16.44,14.13-20.03,24.92c-1.6,4.83-2.38,9.81-2.97,14.85
				c-0.69,5.86-1.34,11.73-2.39,17.53c-1.86,10.31-5.22,20.11-11.22,28.82c-6.9,10.01-15.83,17.49-27.54,21.32
				c-1.35,0.44-2.79,0.69-4.2,0.86c-2.81,0.33-5-0.81-6.54-3.14c-2.59-3.94-4.01-8.36-5.02-12.92
				C597.84,90.56,597.54,83.36,598.22,76.11z M623.59,79.84c-3.72-0.34-7.07,2.42-7.41,6.12c-0.35,3.67,2.41,7,6.08,7.35
				c3.73,0.36,7.15-2.46,7.49-6.17C630.07,83.53,627.24,80.17,623.59,79.84z"/>
			<path class="st4" d="M731.8,24.89c-5.84,0.32-10.58,2.96-14.69,6.95c-2.36,2.29-4.33,4.89-6.13,7.63
				c-0.79,1.2-1.99,1.78-3.24,1.54c-1.26-0.24-2.14-1.26-2.46-2.7c-0.84-3.81-1.49-7.69-2.63-11.41
				c-2.66-8.67-7.57-15.79-15.26-20.82c-0.56-0.36-1.14-0.68-1.71-1.02c-1.16-0.68-1.7-1.72-1.44-2.81c0.29-1.21,1.21-2,2.63-1.96
				c2.52,0.07,5.05,0.14,7.54,0.45C708.8,2.58,721.21,8.71,732,18.26c0.95,0.84,1.86,1.74,2.79,2.62c0.69,0.65,0.94,1.44,0.64,2.34
				c-0.3,0.9-0.99,1.4-1.89,1.55C732.97,24.88,732.38,24.86,731.8,24.89z"/>
		</g>
		<g>
			<path class="st4" d="M757.5,79.47c-0.8,8.51-3.14,16.56-6.84,24.26c-0.43,0.9-0.31,2.12-0.29,3.19
				c0.13,8.34-1.41,16.32-5.02,23.86c-1.25,2.62-2.93,4.92-6.14,5.13c-1.49,0.1-3.05-0.14-4.52-0.46c-1.39-0.3-2.74-0.85-4.06-1.4
				c-1.01-0.42-1.74-0.25-2.52,0.52c-4.43,4.43-9.27,8.35-14.7,11.52c-9.69,5.67-20.14,8.7-31.36,9.12
				c-1.43,0.05-2.87,0.07-4.3,0.06c-1.37,0-2.52-0.85-2.82-2.04c-0.31-1.22,0.23-2.5,1.48-3.13c10.44-5.29,16.44-14.13,20.03-24.92
				c1.6-4.83,2.38-9.81,2.97-14.85c0.69-5.86,1.34-11.73,2.39-17.53c1.86-10.31,5.22-20.11,11.22-28.82
				c6.9-10.01,15.83-17.49,27.54-21.32c1.35-0.44,2.79-0.69,4.2-0.86c2.81-0.33,5,0.81,6.54,3.14c2.59,3.94,4.01,8.36,5.02,12.92
				C757.89,65.01,758.19,72.22,757.5,79.47z M732.14,75.74c3.72,0.34,7.07-2.42,7.41-6.12c0.35-3.67-2.41-7-6.08-7.35
				c-3.73-0.36-7.15,2.46-7.49,6.17C725.65,72.05,728.49,75.41,732.14,75.74z"/>
			<path class="st4" d="M623.92,130.69c5.84-0.32,10.58-2.96,14.69-6.95c2.36-2.29,4.33-4.89,6.13-7.63
				c0.79-1.2,1.99-1.78,3.24-1.54c1.26,0.24,2.14,1.26,2.46,2.7c0.84,3.81,1.49,7.68,2.63,11.41c2.66,8.67,7.57,15.79,15.26,20.82
				c0.56,0.36,1.14,0.68,1.71,1.02c1.16,0.68,1.7,1.72,1.44,2.81c-0.29,1.21-1.21,2-2.63,1.96c-2.52-0.07-5.05-0.14-7.54-0.45
				c-14.38-1.83-26.79-7.96-37.58-17.52c-0.95-0.84-1.86-1.74-2.79-2.62c-0.69-0.65-0.94-1.44-0.64-2.34c0.3-0.9,0.99-1.4,1.89-1.55
				C622.75,130.7,623.34,130.72,623.92,130.69z"/>
		</g>
	</g>
</g>
</svg>
